<?xml version="1.0" encoding="utf-8"?>
<!-- Generator: Adobe Illustrator 14.0.0, SVG Export Plug-In . SVG Version: 6.00 Build 43363)  -->
<!DOCTYPE svg PUBLIC "-//W3C//DTD SVG 1.1//EN" "http://www.w3.org/Graphics/SVG/1.1/DTD/svg11.dtd">
<svg version="1.1" id="Ebene_1" xmlns="http://www.w3.org/2000/svg" xmlns:xlink="http://www.w3.org/1999/xlink" x="0px" y="0px"
	 width="116.22px" height="29.99px" viewBox="239.53 405.95 116.22 29.99" enable-background="new 239.53 405.95 116.22 29.99"
	 xml:space="preserve">
<g>
	<g>
		<defs>
			<rect id="SVGID_1_" x="239.532" y="409.791" width="116.216" height="22.309"/>
		</defs>
		<clipPath id="SVGID_2_">
			<use xlink:href="#SVGID_1_"  overflow="visible"/>
		</clipPath>
		<path clip-path="url(#SVGID_2_)" fill="#E2E5E6" d="M244.1,409.791c0.106,0,0.106,0,0.106,0.106v0.744
			c0,0.213,0,0.213-0.106,0.213H240.7v2.018h3.081c0.106,0,0.106,0,0.106,0.106v0.743c0,0.107,0,0.107-0.106,0.107H240.7v1.912
			h3.399c0.106,0,0.106,0,0.106,0.106v0.744c0,0.106-0.106,0.106-0.106,0.106h-4.461c-0.106,0.106-0.106,0-0.106,0v-6.692
			c0-0.106,0-0.212,0.106-0.212H244.1z"/>
	</g>
	<g>
		<defs>
			<rect id="SVGID_3_" x="239.532" y="409.791" width="116.216" height="22.309"/>
		</defs>
		<clipPath id="SVGID_4_">
			<use xlink:href="#SVGID_3_"  overflow="visible"/>
		</clipPath>
		<path clip-path="url(#SVGID_4_)" fill="#E2E5E6" d="M250.792,409.791c0.106,0,0.106,0,0.106,0.106v3.399
			c0,2.762-0.531,3.506-2.762,3.506c-2.23,0-2.762-0.637-2.762-3.506v-3.293c0-0.106,0-0.106,0.106-0.106h0.849
			c0.106,0,0.106,0,0.106,0.106v3.399c0,2.019,0.319,2.444,1.594,2.444s1.593-0.531,1.593-2.444v-3.399c0-0.106,0-0.106,0.106-0.106
			h1.063V409.791z"/>
	</g>
	<g>
		<defs>
			<rect id="SVGID_5_" x="239.532" y="409.791" width="116.216" height="22.309"/>
		</defs>
		<clipPath id="SVGID_6_">
			<use xlink:href="#SVGID_5_"  overflow="visible"/>
		</clipPath>
		<path clip-path="url(#SVGID_6_)" fill="#E2E5E6" d="M253.554,410.853v2.443h1.062c1.275,0,1.594-0.106,1.594-1.169
			c0-1.062-0.319-1.274-1.594-1.274H253.554z M257.378,412.021c0,1.381-0.425,1.913-1.487,2.125l1.487,2.443
			c0.106,0.106,0,0.212-0.106,0.212h-0.744c-0.212,0-0.318-0.106-0.318-0.212l-1.487-2.337h-1.062v2.443
			c0,0.106,0,0.106-0.106,0.106h-0.85c-0.106,0-0.106,0-0.106-0.106v-6.692c0-0.106,0-0.106,0.106-0.106
			c0.531-0.106,1.275-0.106,1.912-0.106C256.635,409.791,257.378,410.216,257.378,412.021"/>
	</g>
	<g>
		<defs>
			<rect id="SVGID_7_" x="239.532" y="409.791" width="116.216" height="22.309"/>
		</defs>
		<clipPath id="SVGID_8_">
			<use xlink:href="#SVGID_7_"  overflow="visible"/>
		</clipPath>
		<path clip-path="url(#SVGID_8_)" fill="#E2E5E6" d="M259.503,413.296c0,1.912,0.213,2.444,1.7,2.444c1.381,0,1.7-0.532,1.7-2.444
			s-0.319-2.443-1.7-2.443S259.503,411.384,259.503,413.296 M264.071,413.296c0,2.762-0.531,3.506-2.868,3.506
			c-2.231,0-2.868-0.85-2.868-3.506c0-2.762,0.637-3.505,2.868-3.505S264.071,410.64,264.071,413.296"/>
	</g>
	<g>
		<defs>
			<rect id="SVGID_9_" x="239.532" y="409.791" width="116.216" height="22.309"/>
		</defs>
		<clipPath id="SVGID_10_">
			<use xlink:href="#SVGID_9_"  overflow="visible"/>
		</clipPath>
		<path clip-path="url(#SVGID_10_)" fill="#D5D8DA" d="M249.836,419.458c0.213,0,0.213,0.106,0.213,0.212v12.004
			c0,0.212-0.106,0.212-0.213,0.212h-2.125c-0.212,0-0.212-0.105-0.212-0.212v-4.887h-5.417v4.887c0,0.212-0.107,0.212-0.213,0.212
			h-2.018c-0.212,0-0.212-0.105-0.212-0.212V419.67c0-0.212,0.106-0.212,0.212-0.212h2.018c0.213,0,0.213,0.106,0.213,0.212v4.887
			h5.417v-4.887c0-0.212,0.106-0.212,0.212-0.212H249.836z"/>
	</g>
	<g>
		<defs>
			<rect id="SVGID_11_" x="239.532" y="409.791" width="116.216" height="22.309"/>
		</defs>
		<clipPath id="SVGID_12_">
			<use xlink:href="#SVGID_11_"  overflow="visible"/>
		</clipPath>
		<path clip-path="url(#SVGID_12_)" fill="#D5D8DA" d="M260.565,419.458c0.212,0,0.212,0.106,0.212,0.212v1.701
			c0,0.212-0.106,0.212-0.212,0.212h-5.843v3.081h5.312c0.212,0,0.212,0.105,0.212,0.212v1.699c0,0.213-0.106,0.213-0.212,0.213
			h-5.312v2.868h5.843c0.212,0,0.212,0.106,0.212,0.212v1.7c0,0.213-0.106,0.213-0.212,0.213h-8.18
			c-0.212,0-0.212-0.106-0.212-0.213V419.67c0-0.212,0.106-0.212,0.212-0.212H260.565z"/>
	</g>
	<g>
		<defs>
			<rect id="SVGID_13_" x="239.532" y="409.791" width="116.216" height="22.309"/>
		</defs>
		<clipPath id="SVGID_14_">
			<use xlink:href="#SVGID_13_"  overflow="visible"/>
		</clipPath>
		<path clip-path="url(#SVGID_14_)" fill="#D5D8DA" d="M267.364,421.901l-1.168,4.355h3.188l-1.168-4.355
			c-0.106-0.425-0.106-0.425-0.425-0.425S267.47,421.583,267.364,421.901 M270.551,421.264l2.869,10.41c0,0.212,0,0.212-0.212,0.212
			h-2.125c-0.107,0-0.213-0.105-0.213-0.212l-0.956-3.399h-4.355l-0.956,3.399c0,0.212-0.107,0.212-0.213,0.212h-2.019
			c-0.212,0-0.212-0.105-0.212-0.212l2.869-10.41c0.531-1.807,0.85-1.913,2.762-1.913S270.02,419.458,270.551,421.264"/>
	</g>
	<g>
		<defs>
			<rect id="SVGID_15_" x="239.532" y="409.791" width="116.216" height="22.309"/>
		</defs>
		<clipPath id="SVGID_16_">
			<use xlink:href="#SVGID_15_"  overflow="visible"/>
		</clipPath>
		<path clip-path="url(#SVGID_16_)" fill="#D5D8DA" d="M282.449,419.458c0.212,0,0.212,0.106,0.212,0.212v1.701
			c0,0.212-0.106,0.212-0.212,0.212h-3.399v10.092c0,0.212-0.107,0.212-0.213,0.212h-2.125c-0.212,0-0.212-0.105-0.212-0.212
			v-10.092h-3.399c-0.212,0-0.212-0.106-0.212-0.212v-1.701c0-0.212,0.106-0.212,0.212-0.212H282.449z"/>
	</g>
	<g>
		<defs>
			<rect id="SVGID_17_" x="239.532" y="409.791" width="116.216" height="22.309"/>
		</defs>
		<clipPath id="SVGID_18_">
			<use xlink:href="#SVGID_17_"  overflow="visible"/>
		</clipPath>
		<path clip-path="url(#SVGID_18_)" fill="#D5D8DA" d="M296.684,421.583v3.931h1.807c1.912,0,2.442-0.213,2.442-1.913
			c0-1.593-0.53-2.018-2.442-2.018H296.684z M303.482,423.494c0,3.294-1.169,3.931-4.78,3.931h-2.019v4.25
			c0,0.212,0,0.212-0.212,0.212h-2.018c-0.212,0-0.212,0-0.212-0.212v-11.898c0-0.212,0-0.212,0.212-0.212
			c1.381-0.212,2.975-0.212,4.249-0.212C302.313,419.352,303.482,420.201,303.482,423.494"/>
	</g>
	<g>
		<defs>
			<rect id="SVGID_19_" x="239.532" y="409.791" width="116.216" height="22.309"/>
		</defs>
		<clipPath id="SVGID_20_">
			<use xlink:href="#SVGID_19_"  overflow="visible"/>
		</clipPath>
		<path clip-path="url(#SVGID_20_)" fill="#D5D8DA" d="M307.413,425.725c0,3.188,0.425,4.143,2.656,4.143
			c2.23,0,2.762-0.955,2.762-4.143c0-3.187-0.425-4.143-2.655-4.143C307.944,421.583,307.413,422.539,307.413,425.725
			 M315.38,425.725c0,4.887-1.168,6.374-5.311,6.374s-5.313-1.487-5.313-6.374s1.17-6.374,5.313-6.374
			S315.38,420.733,315.38,425.725"/>
	</g>
	<g>
		<defs>
			<rect id="SVGID_21_" x="239.532" y="409.791" width="116.216" height="22.309"/>
		</defs>
		<clipPath id="SVGID_22_">
			<use xlink:href="#SVGID_21_"  overflow="visible"/>
		</clipPath>
		<path clip-path="url(#SVGID_22_)" fill="#D5D8DA" d="M333.439,419.458c0.213,0,0.213,0.106,0.213,0.212l-2.019,10.411
			c-0.425,1.806-0.744,2.019-2.443,2.019c-2.019,0-2.23-0.213-2.656-1.912l-1.487-6.162l-1.486,6.162
			c-0.425,1.699-0.638,1.912-2.656,1.912c-1.806,0-2.124-0.213-2.443-1.912l-2.019-10.411c0-0.212,0-0.212,0.213-0.212h2.125
			c0.106,0,0.212,0.106,0.212,0.212l1.699,9.349c0.106,0.425,0.213,0.531,0.426,0.531c0.212,0,0.318-0.106,0.424-0.531l2.125-8.817
			c0-0.212,0.213-0.212,0.319-0.212h1.912c0.106,0,0.318,0.106,0.318,0.212l2.125,8.817c0.106,0.425,0.106,0.531,0.425,0.531
			c0.213,0,0.318-0.106,0.425-0.531l1.699-9.349c0-0.212,0.106-0.212,0.213-0.212h2.337V419.458z"/>
	</g>
	<g>
		<defs>
			<rect id="SVGID_23_" x="239.532" y="409.791" width="116.216" height="22.309"/>
		</defs>
		<clipPath id="SVGID_24_">
			<use xlink:href="#SVGID_23_"  overflow="visible"/>
		</clipPath>
		<path clip-path="url(#SVGID_24_)" fill="#D5D8DA" d="M343.744,419.458c0.212,0,0.212,0.106,0.212,0.212v1.701
			c0,0.212-0.106,0.212-0.212,0.212h-5.843v3.081h5.312c0.213,0,0.213,0.105,0.213,0.212v1.699c0,0.213-0.106,0.213-0.213,0.213
			h-5.312v2.868h5.843c0.212,0,0.212,0.106,0.212,0.212v1.7c0,0.213-0.106,0.213-0.212,0.213h-8.18
			c-0.212,0-0.212-0.106-0.212-0.213V419.67c0-0.212,0.105-0.212,0.212-0.212H343.744z"/>
	</g>
	<g>
		<defs>
			<rect id="SVGID_25_" x="239.532" y="409.791" width="116.216" height="22.309"/>
		</defs>
		<clipPath id="SVGID_26_">
			<use xlink:href="#SVGID_25_"  overflow="visible"/>
		</clipPath>
		<path clip-path="url(#SVGID_26_)" fill="#D5D8DA" d="M348.631,421.583v3.931h1.806c1.912,0,2.443-0.213,2.443-1.913
			c0-1.593-0.531-2.018-2.443-2.018H348.631z M355.323,423.494c0,2.444-0.637,3.399-2.443,3.824l2.762,4.356
			c0.106,0.212,0,0.318-0.212,0.318h-2.019c-0.426,0-0.531-0.106-0.638-0.318l-2.655-4.144h-1.487v4.25c0,0.212,0,0.212-0.212,0.212
			h-2.02c-0.212,0-0.212,0-0.212-0.212v-12.005c0-0.212,0-0.212,0.212-0.212c1.382-0.106,2.975-0.212,4.355-0.212
			C354.155,419.352,355.323,420.201,355.323,423.494"/>
	</g>
	<g>
		<defs>
			<rect id="SVGID_27_" x="239.532" y="409.791" width="116.216" height="22.309"/>
		</defs>
		<clipPath id="SVGID_28_">
			<use xlink:href="#SVGID_27_"  overflow="visible"/>
		</clipPath>
		<path clip-path="url(#SVGID_28_)" fill="#E2E5E6" d="M285.636,424.664c0,0.318,0.212,0.743,0.637,1.274l0.531-0.319
			c0.212-0.212,0.425-0.318,0.532-0.53c0.106-0.213,0.106-0.319,0.106-0.531c0-0.213-0.106-0.426-0.212-0.532
			c-0.213-0.212-0.425-0.212-0.638-0.212c-0.318,0-0.531,0.105-0.637,0.318C285.636,424.132,285.636,424.344,285.636,424.664
			 M286.273,430.506c0.424,0,0.85-0.106,1.275-0.425l-1.912-2.23l-0.107,0.106c-0.425,0.318-0.637,0.743-0.637,1.168
			s0.106,0.743,0.319,0.956C285.529,430.399,285.849,430.506,286.273,430.506 M282.98,429.337c0-0.424,0.106-0.849,0.425-1.274
			c0.213-0.424,0.744-0.85,1.381-1.274c-0.319-0.425-0.531-0.744-0.637-1.063c-0.212-0.318-0.212-0.743-0.212-1.062
			c0-0.745,0.212-1.382,0.743-1.807c0.531-0.425,1.169-0.743,1.912-0.743c0.744,0,1.275,0.212,1.806,0.637
			c0.425,0.425,0.744,0.956,0.744,1.594c0,0.744-0.425,1.487-1.169,2.019l-0.743,0.53l1.7,1.913c0.212-0.531,0.425-1.063,0.425-1.7
			h1.594c0,1.275-0.319,2.23-0.851,3.081l1.487,1.699h-2.23l-0.531-0.53c-0.744,0.425-1.487,0.743-2.444,0.743
			c-0.956,0-1.7-0.213-2.337-0.743C283.299,430.825,282.98,430.187,282.98,429.337"/>
	</g>
</g>
</svg>
