<svg version="1.1" id="Ebene_1" xmlns="http://www.w3.org/2000/svg" xmlns:xlink="http://www.w3.org/1999/xlink" x="0px" y="0px"
	 width="322px" height="60px" viewBox="0 0 322 60" enable-background="new 0 0 322 60" xml:space="preserve">
<g>
	<polygon fill="#2E5586" points="243.341,35.412 249.335,35.388 249.359,41.284 243.36,41.314 	"/>
	<path fill="#2E5586" d="M197.545,41.5l-0.098-25.9h6l0.104,25.803L197.545,41.5z M197.447,13.603v-6h6v6H197.447z"/>
	<path fill="#2E5586" d="M314.644,25.1c-0.598-1.7-1.899-2.799-3.996-3.399c-1.303-0.399-3.105-0.5-5.604-0.5
		c-2.399,0-4.203,0.198-5.501,0.6c-2.101,0.6-3.398,1.8-4.001,3.5L314.644,25.1z M321.144,28.1c0,0.301,0,0.801-0.104,1.2
		c0,0.499-0.098,1.1-0.195,1.699L295.542,31.1c0.603,1.702,1.9,2.799,4.001,3.396c1.298,0.402,3.102,0.505,5.501,0.505
		c2.199,0,3.997-0.201,5.299-0.603c1.804-0.5,3.204-1.597,4.203-2.998l5.397,2.596c-2.596,4.604-7.602,6.905-14.899,6.905
		c-10.599,0-15.898-4.202-15.997-12.803c0-8.599,5.3-12.999,15.898-12.999C315.741,15.101,321.04,19.401,321.144,28.1"/>
	<path fill="#2E5586" d="M279.241,28.2c0-2.899-0.998-4.9-2.997-5.899c-1.4-0.7-3.697-1-6.999-1c-3.296,0-5.598,0.399-6.999,1.1
		c-1.998,0.999-2.997,3-2.997,5.9c0,2.899,0.999,4.902,2.997,5.901c1.401,0.696,3.703,1.098,6.999,0.999
		c3.302,0,5.599-0.401,6.999-1.102C278.243,33.1,279.241,31.2,279.241,28.2 M279.241,41.099v-1.803
		c-2.497,1.205-5.799,1.9-9.996,1.9c-10.6,0-16.001-4.196-16.001-12.795c0-8.601,5.299-13.001,15.897-13.001
		c4.203,0,7.505,0.599,10.003,1.9V7.401h6.004l0.099,33.795L279.241,41.099z"/>
	<path fill="#2E5586" d="M117.651,25.9c-0.601-1.699-1.901-2.799-3.999-3.399c-1.301-0.401-3.101-0.502-5.601-0.502
		c-2.4,0-4.2,0.201-5.498,0.6c-2.102,0.601-3.402,1.8-4.002,3.502L117.651,25.9z M124.15,28.8c0,0.298,0,0.8-0.1,1.2
		c0,0.5-0.099,1.1-0.199,1.699l-25.3,0.101c0.6,1.698,1.9,2.798,4.002,3.401c1.298,0.402,3.098,0.5,5.498,0.5
		c2.201,0,4.001-0.201,5.299-0.603c1.801-0.5,3.201-1.601,4.2-2.998l5.4,2.601c-2.599,4.594-7.6,6.896-14.899,6.896
		c-10.6,0-15.898-4.198-16-12.798c0-8.601,5.3-13,15.899-13C118.751,15.902,124.051,20.2,124.15,28.8"/>
	<path fill="#2E5586" d="M153.551,25.401c-1-1.501-2.4-2.601-4.201-3.1c-1.199-0.399-3-0.5-5.299-0.5
		c-3.299,0-5.601,0.399-6.999,1.1c-2.001,1-3,3-3,5.9v12.896h-6l-0.101-25.896h6v1.9c2.4-1.3,5.8-1.9,9.999-1.9
		c7.4,0,12.301,2.3,15,7L153.551,25.401z"/>
	<path fill="#993333" d="M97.653,8.5c-0.402,0.899-8.602,16.1-10.4,18.701c-6.7,9.598-8.199,9-10.301,9.499
		c-1.898,0.402-3.898,0.402-5.599-0.999c-2.7-2.203-7.3-8.202-10.699-13.002c-4.1-6-6.6-8.399-8.399-9.198
		c-2.701-1.1-5.199,0-5.199,0s-2.202,0.6-6.401,6c-4.301,5.4-9.899,14.599-9.899,14.599s-9,14.502-9.5,15.8
		c-0.399,1,4.2,2.102,5.799,0c0.801-1.102,4.3-6.998,9-14.002c4.699-7.097,9.898-14.498,13.1-14.498c2.9,0,4.9,1.702,10.699,10.401
		c1.6,2.402,8.001,11.101,11.099,12.296c3.003,1.204,5.601,0.504,5.601,0.504s4.301,0.201,10.501-8.102c4.1-5.5,10.7-18.1,10.7-18.1
		s4.599-9.198,4.897-9.899C103.251,6.901,99.353,4.901,97.653,8.5"/>
	<path fill="#2E5586" d="M185.545,28.599c0-2.9-0.998-4.898-2.997-5.9c-1.4-0.7-3.698-1.099-6.999-0.999
		c-3.297,0-5.598,0.399-6.999,1.1c-1.998,0.999-2.998,3-2.998,5.899c0,2.9,1,4.9,2.998,5.899c1.401,0.701,3.702,1.103,6.999,1.005
		c3.301,0,5.599-0.402,6.999-1.107C184.547,33.498,185.545,31.499,185.545,28.599 M191.551,40.501c0,8.601-5.301,12.9-15.899,12.999
		c-7.303,0-12.301-2.303-15.001-7.004l5.402-2.597c0.998,1.499,2.399,2.597,4.196,3.102c1.2,0.298,3.003,0.499,5.3,0.499
		c3.301,0,5.599-0.402,6.999-1.103c1.999-0.999,2.997-2.997,2.997-5.896v-0.9c-2.497,1.199-5.799,1.899-9.996,1.899
		c-10.599,0-15.998-4.202-15.998-12.801c0-8.598,5.296-12.999,15.896-12.999c4.202,0,7.503,0.6,10.001,1.9v-1.9h6.005
		L191.551,40.501z"/>
	<path fill="#2E5586" d="M26.355,26.2c-0.6-1.7-1.901-2.8-3.999-3.399c-1.3-0.399-3.101-0.5-5.601-0.5c-2.4,0-4.2,0.2-5.498,0.6
		c-2.101,0.601-3.401,1.8-4.001,3.5L26.355,26.2z M32.756,29.2c0,0.301,0,0.8-0.1,1.3c0,0.499-0.101,1.1-0.202,1.7l-25.199,0.1
		c0.6,1.698,1.9,2.799,4.001,3.402c1.298,0.401,3.098,0.598,5.498,0.5c2.202,0,4.002-0.201,5.3-0.598
		c1.8-0.505,3.201-1.606,4.2-3.003l5.4,2.601c-2.598,4.599-7.599,6.896-14.899,6.896C6.256,42.201,0.856,37.9,0.856,29.3
		c0-8.599,5.299-13,15.898-13C27.356,16.3,32.756,20.601,32.756,29.2"/>
	<path fill="#2E5586" d="M232.947,25.401c-0.598-1.7-1.901-2.802-3.997-3.402c-1.302-0.398-3.105-0.5-5.603-0.5
		c-2.4,0-4.203,0.201-5.501,0.601c-2.102,0.599-3.399,1.8-4.001,3.499L232.947,25.401z M239.344,28.401c0,0.298,0,0.799-0.099,1.2
		c0,0.5-0.097,1.1-0.195,1.7l-25.204,0.198c0.602,1.704,1.899,2.802,4.001,3.399c1.298,0.401,3.101,0.499,5.501,0.499
		c2.199,0,3.996-0.196,5.299-0.598c1.803-0.598,3.204-1.597,4.203-3l5.397,2.598c-2.601,4.604-7.602,6.9-14.899,6.9
		c-10.6,0-15.898-4.196-15.997-12.798c0-8.601,5.3-13.001,15.898-13.001C233.946,15.5,239.344,19.8,239.344,28.401"/>
</g>
</svg>
