<svg version="1.1" id="Ebene_1" xmlns="http://www.w3.org/2000/svg" xmlns:xlink="http://www.w3.org/1999/xlink" x="0px" y="0px"
	 width="29px" height="30px" viewBox="0 0 29 30" enable-background="new 0 0 29 30" xml:space="preserve">
<g>
	<g>
		<path fill="#D5D8DA" d="M12.879,16.188c0.108-0.323,0.108-0.54,0.108-1.296c0-0.216,0-0.756-0.216-1.189
			c-0.216-0.432-0.864-1.404-2.161-1.404c-0.324,0-0.756,0-1.404,0.432c-0.757,0.432-1.729,1.405-2.269,3.457H12.879z M6.396,18.998
			C6.289,19.43,6.18,19.862,6.18,20.727c0,0.216,0,0.864,0.216,1.512c0.216,0.541,0.865,1.513,2.485,1.513
			c1.296,0,2.269-0.756,2.917-1.945c0.108-0.108,0.216-0.432,0.324-0.864l4.322,1.513c-0.108,0.324-0.648,0.432-1.081,1.188
			c-2.161,3.241-5.51,3.35-6.807,3.35c-0.324,0-1.621,0-2.701-0.432c-2.593-0.865-3.458-3.134-3.782-3.998
			c-0.216-0.756-0.324-1.836-0.324-2.701c0-3.565,1.188-7.239,4.214-9.4c1.945-1.405,3.89-1.513,4.862-1.513
			c0.432,0,1.945,0,3.242,0.648c1.188,0.648,3.458,2.377,3.458,6.051c0,0.756-0.108,1.837-0.541,3.349H6.396z"/>
	</g>
	<g>
		<path fill="#D5D8DA" d="M27.25,12.839h-3.674l-1.513,6.916c-0.107,0.54-0.432,1.729-0.432,2.269c0,1.296,1.189,1.513,1.621,1.513
			c0.648,0,3.35-1.081,3.89-1.405l-3.025,4.538c-0.541,0.108-1.405,0.432-2.81,0.432c-0.324,0-1.188,0-2.053-0.432
			s-2.161-1.405-2.161-3.782c0-1.188,0.324-2.593,0.972-5.079l1.081-5.078h-2.161l0.757-3.565h2.053l1.188-5.403l4.538-0.864
			l-1.296,6.375h2.81"/>
	</g>
</g>
</svg>
