<svg version="1.1" id="Ebene_1" xmlns="http://www.w3.org/2000/svg" xmlns:xlink="http://www.w3.org/1999/xlink" x="0px" y="0px"
	 width="98px" height="60px" viewBox="0 0 98 60" enable-background="new 0 0 98 60" xml:space="preserve">
<g>
	<g>
		<path fill="#003A6E" d="M96.58,8.717v35.813c0,0.922-0.203,1.945-0.51,2.866
			c-0.309,0.921-0.82,1.739-1.434,2.353c-0.41,0.409-0.818,0.717-1.227,1.023c-0.514,0.409-1.023,0.614-1.537,0.819
			C91.26,51.795,90.646,52,90.236,52c-0.613,0.102-1.023,0.102-1.227,0.102H60.154c-0.922,0-1.945-0.205-2.865-0.511
			c-0.922-0.307-1.74-0.819-2.354-1.434c-0.408-0.409-0.717-0.818-1.025-1.229c-0.408-0.511-0.611-1.022-0.818-1.533
			c-0.203-0.614-0.408-1.229-0.408-1.638c-0.104-0.613-0.104-1.022-0.104-1.229V8.717h8.699v34.585h9.006V9.331h8.697v33.971h8.799
			V8.717H96.58z M10.117,16.698h26.502v8.493H10.117V16.698z M45.316,14.242c-0.102-0.409-0.205-1.023-0.408-1.637
			c-0.205-0.512-0.512-1.023-0.82-1.535c-0.307-0.409-0.613-0.818-1.021-1.228c-0.615-0.613-1.434-1.125-2.252-1.432
			C39.895,8.205,38.869,8,37.949,8h-0.102H8.991H8.889C8.685,8,8.275,8,7.661,8.103C7.252,8.205,6.639,8.307,6.024,8.512
			C5.513,8.717,5.001,9.024,4.489,9.331C4.08,9.637,3.671,9.944,3.262,10.354c-0.512,0.614-1.023,1.432-1.33,2.354
			C1.624,13.526,1.42,14.549,1.42,15.47v0.102v10.948v9.823v8.084l0,0c0,0.102,0,0.204,0,0.511c0,0.819,0.204,1.638,0.512,2.354
			c0.307,0.923,0.818,1.74,1.433,2.354c0,0.102,0.103,0.102,0.103,0.102c0.102,0.103,0.204,0.206,0.409,0.409
			c0.613,0.614,1.433,1.127,2.353,1.434C6.945,51.896,7.764,52,8.583,52.102c0.204,0,0.408,0,0.511,0h28.855
			c0.102,0,0.205,0,0.512,0c0.818,0,1.637-0.205,2.354-0.511c0.92-0.307,1.74-0.819,2.354-1.434
			c0.408-0.409,0.717-0.818,1.023-1.229c0.408-0.511,0.613-1.124,0.818-1.533c0.205-0.614,0.408-1.229,0.408-1.638
			c0.104-0.613,0.104-1.022,0.104-1.229V41.46h-8.697v1.945H10.117v-6.958v-2.354h35.301v-7.061V15.572V15.47
			C45.418,15.265,45.418,14.856,45.316,14.242"/>
	</g>
</g>
</svg>
