<svg version="1.1" id="Ebene_1" xmlns="http://www.w3.org/2000/svg" xmlns:xlink="http://www.w3.org/1999/xlink" x="0px" y="0px"
	 width="39px" height="30px" viewBox="0 0 39 30" enable-background="new 0 0 39 30" xml:space="preserve">
<path fill="#D5D8DA" d="M37.198,7.069v13.254c0,0.326-0.108,0.761-0.217,1.086c-0.108,0.326-0.325,0.652-0.543,0.869
	c-0.108,0.108-0.326,0.326-0.435,0.435c-0.218,0.109-0.435,0.218-0.544,0.326c-0.217,0.108-0.434,0.108-0.65,0.218
	c-0.218,0-0.436,0-0.436,0H23.728c-0.326,0-0.761-0.109-1.086-0.218c-0.326-0.108-0.652-0.326-0.869-0.544
	c-0.108-0.108-0.327-0.325-0.435-0.434c-0.109-0.217-0.218-0.435-0.326-0.543c-0.108-0.218-0.108-0.435-0.218-0.651
	c0-0.218,0-0.435,0-0.435V7.069h3.259v12.819h3.368V7.396h3.259v12.493h3.259V7.069H37.198z M5.259,10.111h9.777v3.15H5.259V10.111z
	 M18.296,9.134c0-0.218-0.109-0.326-0.217-0.652c-0.109-0.217-0.109-0.326-0.326-0.543c-0.108-0.108-0.217-0.326-0.435-0.435
	c-0.217-0.217-0.543-0.435-0.869-0.543c-0.217,0-0.543-0.108-0.869-0.108l0,0H4.825l0,0c-0.108,0-0.326,0-0.543,0
	C4.173,6.961,3.956,6.961,3.738,7.069C3.521,7.179,3.303,7.179,3.195,7.396C2.978,7.504,2.869,7.612,2.652,7.722
	C2.543,7.938,2.326,8.265,2.217,8.591C2.109,8.916,2,9.242,2,9.568l0,0v4.02v3.585v3.042l0,0c0,0,0,0.108,0,0.218
	c0,0.326,0.109,0.543,0.217,0.868c0.109,0.326,0.326,0.652,0.543,0.869c0,0,0,0,0,0.108l0.109,0.108
	c0.217,0.218,0.543,0.436,0.869,0.544c0.326,0.108,0.543,0.217,0.869,0.217c0.109,0,0.109,0,0.217,0h10.646c0,0,0.109,0,0.218,0
	c0.326,0,0.652-0.108,0.869-0.217c0.326-0.108,0.651-0.326,0.869-0.544c0.108-0.108,0.326-0.325,0.434-0.434
	c0.109-0.218,0.218-0.435,0.326-0.544c0.109-0.217,0.109-0.434,0.217-0.65c0-0.218,0-0.436,0-0.436v-1.195h-3.259v0.761H5.259
	v-2.607v-0.869h13.037v-2.607V9.677l0,0C18.296,9.568,18.296,9.351,18.296,9.134"/>
</svg>
