
<svg version="1.1" id="Ebene_1" xmlns="http://www.w3.org/2000/svg" xmlns:xlink="http://www.w3.org/1999/xlink" x="0px" y="0px"
	 width="103.25px" height="30px" viewBox="0 0 103.25 30" enable-background="new 0 0 103.25 30" xml:space="preserve">
<g>
	<polygon fill="#E2E5E6" points="33.99,9.294 41.668,9.294 41.668,12.199 37.518,18.319 41.771,18.319 41.771,21.016 33.783,21.016 
		33.783,18.113 38.14,11.888 33.99,11.888 	"/>
	<path fill="#C8CCCF" d="M88.142,21.016h3.424V9.294h-3.424V21.016z M88.142,7.22h3.424V4.108h-3.424V7.22z"/>
	<polygon fill="#C8CCCF" points="80.983,17.076 79.116,21.016 75.588,21.016 79.012,14.792 75.899,9.294 79.635,9.294 
		81.189,12.821 82.745,9.294 86.273,9.294 83.057,14.792 86.48,21.016 82.745,21.016 	"/>
	<path fill="#E2E5E6" d="M7.849,13.755c0-1.452-0.623-1.867-1.349-1.867c-1.141,0-1.452,1.038-1.452,2.49v6.536h-3.32v-9.336
		c0-1.142,0-1.867-0.104-2.49h3.112c0,0.52,0.104,1.141,0.104,1.971l0,0C5.359,9.813,6.189,8.88,7.953,8.88
		c2.49,0,3.32,1.867,3.32,4.252v7.679H7.849V13.755z"/>
	<path fill="#C8CCCF" d="M48.928,11.681c-1.348,0-1.659,2.074-1.659,3.422c0,1.868,0.312,3.631,1.659,3.631
		c1.453,0,1.66-1.763,1.66-3.631C50.588,13.963,50.484,11.681,48.928,11.681 M43.846,11.888c0-1.453,0-2.074-0.104-2.594h3.217
		c0,0.416,0.103,1.038,0.103,1.868l0,0c0.312-0.727,1.143-2.075,3.009-2.075c2.489,0,3.943,2.594,3.943,6.327
		c0,3.112-1.143,5.811-3.943,5.811c-1.556,0-2.489-0.829-2.904-1.868l0,0v6.535h-3.424V11.888H43.846z"/>
	<path fill="#C8CCCF" d="M56.501,11.681c0-1.142,0-1.868-0.105-2.491h3.114c0,0.727,0.104,1.453,0.104,2.075l0,0
		c0.725-1.245,1.141-2.282,3.111-2.282h0.519v3.423c-0.415-0.104-0.621-0.104-1.142-0.104c-1.968,0-2.177,1.764-2.177,3.526v5.292
		h-3.424V11.681z"/>
	<path fill="#E2E5E6" d="M24.862,9.294h1.971V6.909l3.32-1.141v3.526h2.177v2.49h-2.177v5.395c0,1.14,0.518,1.45,1.141,1.45
		c0.518,0,0.726-0.103,1.14-0.206v2.49c-0.311,0.103-1.245,0.312-2.385,0.312c-1.765,0-3.32-0.935-3.32-3.424v-6.017h-1.867V9.294
		L24.862,9.294z"/>
	<path fill="#E2E5E6" d="M20.401,14.17c0-1.453-0.416-2.905-1.763-2.905c-1.765,0-1.765,2.282-1.765,2.905H20.401z M23.513,16.038
		h-6.64c0,1.348,0.831,2.696,2.801,2.696c1.141,0,2.283-0.415,3.112-0.933l0.104,2.698c-1.142,0.415-2.386,0.727-3.527,0.727
		c-3.941,0-5.706-2.491-5.706-6.122c0-3.111,1.764-6.016,4.98-6.016c1.037,0,4.875,0,4.875,6.12V16.038z"/>
	<path fill="#C8CCCF" d="M70.92,15.31c-1.348,0-3.527,0.104-3.527,2.076c0,1.556,1.141,1.556,1.452,1.556
		c0.313,0,1.972,0,1.972-2.904V15.31H70.92z M65.525,9.813c0.831-0.312,2.386-0.727,3.633-0.727c3.941,0,4.874,1.764,4.874,4.356
		v4.253c0,1.764,0,2.491,0.104,3.32h-3.111l-0.104-1.659l0,0c-0.104,0.724-1.452,1.765-3.112,1.765
		c-2.074,0-3.423-1.454-3.423-3.528c0-3.942,4.355-3.942,5.498-3.942h1.037c0-2.282-1.556-2.282-2.075-2.282
		c-0.83,0-1.763,0.207-3.111,1.036L65.525,9.813z"/>
	<path fill="#C8CCCF" d="M100.9,12.199c-0.934-0.415-1.765-0.622-2.697-0.622c-0.831,0-1.245,0.415-1.245,0.829
		c0,0.726,0.519,0.935,2.385,1.66c1.144,0.415,2.387,1.244,2.387,3.424c0,2.59-1.867,3.631-4.148,3.631
		c-1.037,0-2.491-0.105-3.632-0.52l0.103-2.801c0.831,0.518,1.868,0.828,2.803,0.828c1.555,0,1.66-0.62,1.66-1.138
		c0-0.52-0.831-0.728-2.386-1.35c-1.144-0.518-2.388-1.555-2.388-3.63c0-1.245,0.83-3.527,4.15-3.527
		c1.347,0,2.595,0.311,3.112,0.518L100.9,12.199z"/>
</g>
</svg>
