<svg version="1.1" id="Ebene_1" xmlns="http://www.w3.org/2000/svg" xmlns:xlink="http://www.w3.org/1999/xlink" x="0px" y="0px"
	 width="47.75px" height="30px" viewBox="0 0 47.75 30" enable-background="new 0 0 47.75 30" xml:space="preserve">
<g>
	<g enable-background="new    ">
		<path fill="#D5D8DA" d="M14.42,4.494l0.163,6.693h-0.607c-0.287-1.678-0.99-3.028-2.11-4.05C10.745,6.116,9.534,5.604,8.23,5.604
			c-1.006,0-1.804,0.269-2.391,0.807C5.251,6.95,4.958,7.569,4.958,8.27c0,0.444,0.104,0.839,0.311,1.185
			c0.287,0.464,0.746,0.923,1.377,1.377c0.463,0.325,1.534,0.903,3.213,1.732c2.349,1.155,3.933,2.246,4.753,3.273
			c0.81,1.027,1.214,2.202,1.214,3.524c0,1.679-0.654,3.122-1.962,4.332c-1.308,1.209-2.968,1.813-4.982,1.813
			c-0.632,0-1.229-0.064-1.792-0.191c-0.563-0.129-1.268-0.371-2.117-0.726c-0.474-0.198-0.864-0.297-1.17-0.297
			c-0.257,0-0.528,0.099-0.814,0.297c-0.287,0.197-0.518,0.497-0.696,0.903H1.745V17.91h0.548c0.434,2.132,1.271,3.759,2.51,4.879
			c1.239,1.12,2.574,1.681,4.006,1.681c1.105,0,1.986-0.302,2.643-0.902c0.657-0.603,0.985-1.304,0.985-2.104
			c0-0.474-0.126-0.934-0.377-1.377c-0.251-0.444-0.635-0.867-1.148-1.267c-0.513-0.399-1.421-0.92-2.724-1.562
			c-1.827-0.898-3.139-1.664-3.939-2.295s-1.414-1.337-1.844-2.117c-0.429-0.78-0.644-1.639-0.644-2.577
			c0-1.599,0.587-2.961,1.762-4.087s2.655-1.688,4.442-1.688c0.651,0,1.283,0.079,1.896,0.237c0.463,0.119,1.029,0.338,1.695,0.659
			c0.666,0.321,1.132,0.482,1.399,0.482c0.257,0,0.459-0.08,0.607-0.237c0.148-0.158,0.286-0.538,0.415-1.14H14.42z"/>
		<path fill="#D5D8DA" d="M23.556,6.123v5.064h3.288v1.466h-3.288v8.544c0,0.799,0.037,1.316,0.111,1.547
			c0.074,0.231,0.205,0.42,0.392,0.563c0.188,0.143,0.361,0.214,0.519,0.214c0.642,0,1.249-0.488,1.822-1.465l0.444,0.324
			c-0.799,1.896-2.098,2.844-3.894,2.844c-0.879,0-1.622-0.244-2.229-0.733c-0.607-0.488-0.995-1.033-1.163-1.636
			c-0.098-0.336-0.148-1.244-0.148-2.725v-7.478h-1.807v-0.518c1.244-0.878,2.303-1.802,3.176-2.769
			c0.874-0.967,1.636-2.048,2.288-3.243H23.556z"/>
		<path fill="#D5D8DA" d="M35.403,6.108v8.174h0.4c1.271,0,2.195-0.399,2.768-1.199s0.938-1.979,1.096-3.539h0.564v10.514h-0.564
			c-0.119-1.146-0.367-2.083-0.748-2.814c-0.379-0.731-0.822-1.222-1.324-1.474c-0.504-0.251-1.234-0.377-2.191-0.377v5.656
			c0,1.106,0.047,1.782,0.141,2.029c0.092,0.247,0.268,0.449,0.525,0.606c0.256,0.158,0.672,0.237,1.244,0.237h1.199
			c1.875,0,3.377-0.435,4.508-1.303c1.131-0.869,1.943-2.192,2.438-3.969h0.547l-0.902,6.382H27.747v-0.548h0.666
			c0.583,0,1.052-0.104,1.407-0.312c0.257-0.138,0.454-0.374,0.592-0.71c0.108-0.237,0.163-0.859,0.163-1.866V8.388
			c0-0.908-0.024-1.465-0.074-1.673c-0.098-0.345-0.281-0.612-0.548-0.799c-0.375-0.276-0.888-0.415-1.54-0.415h-0.666V4.953h16.807
			v5.938h-0.563c-0.287-1.451-0.689-2.492-1.207-3.124c-0.518-0.631-1.252-1.096-2.199-1.392c-0.553-0.177-1.588-0.267-3.109-0.267
			H35.403z"/>
	</g>
</g>
</svg>
