<svg version="1.1" id="Ebene_1" xmlns="http://www.w3.org/2000/svg" xmlns:xlink="http://www.w3.org/1999/xlink" x="0px" y="0px"
	 width="70.875px" height="30px" viewBox="0 0 70.875 30" enable-background="new 0 0 70.875 30" xml:space="preserve">
<g>

			<path fill="#D5D8DA" d="M69.688,7.192H68.23l-3.955,13.95l0,0l-4.06-13.95h-1.875l-4.061,13.95l0,0l-3.852-13.95h-1.563
				l4.478,15.72h1.873l4.061-13.951l0,0l3.956,13.951h1.873L69.688,7.192z M42.1,14.584c1.666-1.042,3.02-1.979,3.02-4.164
				c0-2.499-2.394-3.54-4.58-3.54c-2.188,0-4.79,1.145-4.79,3.54c0,1.77,0.937,2.603,2.188,3.748
				c-2.5,1.041-3.332,2.394-3.332,4.268c0,2.915,2.499,4.582,5.621,4.582c1.563,0,3.125-0.521,4.27-1.667l1.04,1.354h3.852
				l-2.811-3.124c1.249-1.458,1.874-3.332,1.978-5.414h-2.603c0,1.25-0.207,2.5-0.937,3.436L42.1,14.584z M40.33,13.022
				c-0.624-0.625-1.456-1.354-1.456-2.186c0-1.146,0.936-1.666,1.77-1.666c0.936,0,1.77,0.52,1.77,1.666
				C42.308,11.669,41.058,12.605,40.33,13.022 M43.037,19.79c-0.729,0.625-1.666,0.937-2.707,0.937
				c-1.456,0-2.604-0.937-2.604-2.291c0-1.249,0.834-1.978,1.873-2.498L43.037,19.79z"/>
			<path fill="#D5D8DA" d="M1.187,22.496c0.833,0.312,1.978,0.624,3.54,0.624c2.395,0,5.102-1.249,5.102-4.475
				c0-4.582-7.184-4.582-7.184-7.809c0-1.978,1.77-2.707,3.437-2.707c1.041,0,2.186,0.208,2.811,0.624l0.208-1.457
				C8.162,6.984,6.912,6.88,6.184,6.88c-2.811,0-4.997,1.562-4.997,4.061c0,4.164,7.184,4.477,7.184,7.601
				c0,2.186-1.562,3.227-3.54,3.227c-1.458,0-2.499-0.313-3.437-0.938L1.187,22.496"/>


	<polygon fill="#D5D8DA" points="31.585,7.192 27.733,21.143 27.629,21.143 23.673,7.192 21.8,7.192 17.843,21.143 17.739,21.143 
		13.887,7.192 12.326,7.192 16.803,22.808 18.677,22.808 22.737,8.858 22.737,8.858 26.693,22.808 28.566,22.808 33.146,7.192 	"/>
</g>
</svg>
